<?xml version="1.0" standalone="no"?>
<!DOCTYPE svg PUBLIC "-//W3C//DTD SVG 20010904//EN"
 "http://www.w3.org/TR/2001/REC-SVG-20010904/DTD/svg10.dtd">
<svg version="1.0" xmlns="http://www.w3.org/2000/svg"
 width="150.000000pt" height="40.000000pt" viewBox="0 0 150.000000 40.000000"
 preserveAspectRatio="xMidYMid meet">

<g transform="translate(0.000000,40.000000) scale(0.100000,-0.100000)"
fill="#000000" stroke="none">
<path d="M85 320 l-70 -70 28 -27 27 -28 72 72 72 72 -24 26 c-13 14 -26 25
-30 25 -3 0 -37 -32 -75 -70z"/>
<path d="M515 349 c-4 -6 -13 -8 -21 -5 -15 6 -28 -10 -29 -34 0 -11 -15 -16
-60 -18 -69 -3 -98 -15 -121 -50 -27 -41 -1 -50 41 -13 20 17 39 31 43 31 3 0
30 -23 59 -52 l53 -52 37 36 c21 19 44 33 50 31 7 -3 16 4 19 14 3 10 9 25 14
34 6 12 -1 26 -29 53 -40 39 -46 42 -56 25z"/>
<path d="M152 158 c-20 -20 -14 -40 11 -36 14 2 23 11 25 26 4 24 -16 30 -36
10z"/>
<path d="M790 90 c0 -79 0 -80 25 -80 25 0 25 1 25 80 0 79 0 80 -25 80 -25 0
-25 -1 -25 -80z"/>
<path d="M571 128 c-35 -13 -25 -59 18 -79 26 -12 30 -17 18 -22 -9 -3 -23 0
-31 8 -8 8 -20 15 -26 15 -20 0 -5 -24 24 -39 25 -12 31 -11 57 8 22 16 29 18
29 7 0 -19 17 -24 68 -18 l43 4 -3 56 c-3 50 -6 57 -28 62 -50 13 -97 -18 -71
-45 6 -6 4 -15 -4 -22 -11 -10 -15 -9 -20 7 -4 11 -17 23 -31 26 -13 3 -24 10
-24 15 0 5 11 7 25 3 14 -3 25 -2 25 4 0 14 -42 20 -69 10z m149 -28 c0 -11
-6 -20 -14 -20 -9 0 -12 7 -9 20 3 11 9 20 14 20 5 0 9 -9 9 -20z m-3 -62 c-3
-7 -5 -2 -5 12 0 14 2 19 5 13 2 -7 2 -19 0 -25z"/>
<path d="M892 132 c-28 -4 -39 -27 -22 -47 9 -10 9 -15 1 -15 -15 0 -14 -57 2
-62 6 -3 31 -3 55 0 l43 4 -3 56 c-3 50 -6 56 -28 62 -14 3 -35 4 -48 2z m28
-32 c0 -11 -6 -20 -14 -20 -9 0 -12 7 -9 20 3 11 9 20 14 20 5 0 9 -9 9 -20z
m-3 -62 c-3 -7 -5 -2 -5 12 0 14 2 19 5 13 2 -7 2 -19 0 -25z"/>
<path d="M187 123 c-12 -11 -7 -43 6 -43 17 0 37 20 37 37 0 13 -32 18 -43 6z"/>
<path d="M1056 114 c-9 -8 -16 -31 -16 -50 0 -30 5 -37 35 -49 45 -19 95 -4
74 21 -8 10 -15 12 -17 5 -2 -6 -10 -11 -18 -11 -16 0 -29 42 -20 65 7 19 26
19 26 0 0 -16 25 -21 34 -6 4 5 3 16 0 25 -8 21 -77 21 -98 0z"/>
<path d="M1174 104 c-22 -33 -9 -74 30 -93 25 -12 31 -11 55 6 53 40 31 113
-35 113 -25 0 -38 -7 -50 -26z m66 -34 c0 -45 -15 -62 -22 -25 -7 33 2 76 13
69 5 -3 9 -23 9 -44z"/>
<path d="M1300 70 c0 -57 1 -60 25 -60 23 0 25 4 25 44 0 25 5 48 10 51 6 4
10 -13 10 -44 0 -48 2 -51 25 -51 23 0 25 4 25 44 0 25 5 48 10 51 6 4 10 -13
10 -44 0 -48 2 -51 25 -51 25 0 26 2 23 58 l-3 57 -92 3 -93 2 0 -60z"/>
<path d="M223 81 c-18 -28 8 -49 31 -25 9 9 15 21 13 28 -6 19 -31 17 -44 -3z"/>
<path d="M262 33 c2 -10 10 -18 18 -18 22 0 18 29 -3 33 -14 3 -18 -1 -15 -15z"/>
<path d="M990 31 c0 -15 6 -21 21 -21 14 0 19 5 17 17 -5 26 -38 29 -38 4z"/>
</g>
</svg>
